<svg preserveAspectRatio="none" width="100%" height="100%" overflow="visible" style="display: block;" viewBox="0 0 1029.36 84.2267" fill="none" xmlns="http://www.w3.org/2000/svg">
<g id="&#208;&#155;&#208;&#158;&#208;&#147;&#208;&#158;">
<path id="Vector" d="M1029.36 2.13318C1028.89 13.5785 1028.65 25.8704 1028.65 39.0089C1028.65 52.1473 1028.89 64.4392 1029.36 75.8846H1005.49V48.2532H968.104V75.8846H944.232C944.773 62.7461 945.044 50.4542 945.044 39.0089C945.044 27.5635 944.773 15.2716 944.232 2.13318H968.104V29.7645H1005.49V2.13318H1029.36Z" fill="var(--fill-0, #E13333)"/>
<path id="Vector_2" d="M912.5 75.8846C911.213 72.0243 909.486 67.182 907.319 61.3578H874.913L869.834 75.8846H844.336L872.78 2.13318H910.164L938.811 75.8846H912.5ZM901.529 45.5104C898.955 38.3994 896.314 31.2883 893.605 24.1773L891.167 17.5742C888.797 23.7371 885.309 33.0492 880.704 45.5104H901.529Z" fill="var(--fill-0, #E13333)"/>
<path id="Vector_3" d="M832.374 2.13318L840.297 75.8846H813.987L812.361 23.2631L802.203 75.8846H775.587L765.225 23.6694L763.702 75.8846H737.391L745.315 2.13318H779.854L788.692 50.1833L796.412 2.13318H832.374Z" fill="var(--fill-0, #E13333)"/>
<path id="Vector_4" d="M691.399 0C704.469 0 714.052 3.3862 720.147 10.1586C726.243 16.931 729.29 26.3446 729.29 38.3995C729.29 50.6575 726.243 60.1389 720.147 66.8435C714.12 73.5482 704.537 76.9006 691.399 76.9006C679.953 76.9006 671.183 74.2932 665.088 69.0784C658.993 63.796 655.302 56.3463 654.015 46.7295H645.787V54.7548C645.787 60.1727 645.854 67.216 645.99 75.8847H622.016L622.117 65.2182C622.253 53.5697 622.32 44.5285 622.32 38.0947C622.32 32.0673 622.253 23.5002 622.117 12.3935L622.016 2.13331H645.99C645.854 7.68667 645.787 16.8633 645.787 29.6631H654.117C655.471 20.2495 659.162 12.9691 665.19 7.82212C671.285 2.60737 680.021 0 691.399 0ZM691.399 58.3103C696.004 58.3103 699.593 56.6172 702.167 53.231C704.74 49.8448 706.027 44.901 706.027 38.3995C706.027 32.0334 704.706 27.1573 702.065 23.7711C699.492 20.3172 695.936 18.5902 691.399 18.5902C686.861 18.5902 683.272 20.3172 680.631 23.7711C678.057 27.1573 676.77 32.0334 676.77 38.3995C676.77 44.8333 678.057 49.7771 680.631 53.231C683.272 56.6172 686.861 58.3103 691.399 58.3103Z" fill="var(--fill-0, #E13333)"/>
<path id="Vector_5" d="M578.879 20.0123C588.157 20.0123 595.437 21.1975 600.72 23.5678C606.002 25.8704 609.693 29.1212 611.792 33.3201C613.892 37.4512 614.942 42.4967 614.942 48.4564C614.942 57.125 612.3 63.8636 607.018 68.672C601.735 73.4127 592.356 75.783 578.879 75.783H560.796V75.8846H535.806C536.348 62.7461 536.619 50.4542 536.619 39.0089C536.619 27.5635 536.348 15.2716 535.806 2.13318H560.796V20.0123H578.879ZM574.815 55.669C579.556 55.669 583.111 55.4658 585.482 55.0595C587.92 54.5854 589.613 53.8066 590.561 52.723C591.509 51.6394 591.983 49.9802 591.983 47.7453C591.983 45.5104 591.475 43.8173 590.459 42.666C589.444 41.5147 587.717 40.7358 585.279 40.3295C582.908 39.8554 579.42 39.6184 574.815 39.6184H560.796V55.669H574.815Z" fill="var(--fill-0, #E13333)"/>
<path id="Vector_6" d="M500.771 38.0946L530.434 75.8846H501.076L486.448 55.9737L471.718 75.8846H442.359L472.022 38.0946L443.375 2.13318H472.733L486.448 20.4186L500.06 2.13318H529.418L500.771 38.0946Z" fill="var(--fill-0, #E13333)"/>
<path id="Vector_7" d="M402.267 2.23476C415.744 2.23476 425.124 4.63896 430.406 9.44736C435.689 14.188 438.33 20.8927 438.33 29.5614C438.33 35.5211 437.28 40.6004 435.181 44.7993C433.081 48.9304 429.39 52.1812 424.108 54.5515C418.826 56.8541 411.545 58.0054 402.267 58.0054H381.137V75.8846H356.147C356.689 62.7461 356.96 50.4542 356.96 39.0089C356.96 27.5635 356.689 15.2716 356.147 2.13318H381.137V2.23476H402.267ZM395.156 38.3994C400.777 38.3994 404.976 38.1962 407.753 37.7898C410.597 37.3158 412.561 36.5031 413.645 35.3518C414.796 34.2005 415.372 32.5074 415.372 30.2725C415.372 28.0376 414.83 26.3784 413.746 25.2948C412.73 24.1435 410.8 23.3646 407.956 22.9583C405.179 22.552 400.913 22.3488 395.156 22.3488H381.137V38.3994H395.156Z" fill="var(--fill-0, #E13333)"/>
<path id="Vector_8" d="M292.028 57.2943C317.763 57.1589 336.421 56.7864 348.002 56.1769C347.527 58.9536 347.223 61.8319 347.087 64.8117C347.02 67.7238 346.986 71.4148 346.986 75.8846H268.054C268.595 62.7461 268.866 50.4542 268.866 39.0089C268.866 27.5635 268.595 15.2716 268.054 2.13318H346.986V20.5202H292.028V30.2725C295.279 30.3402 300.087 30.3741 306.453 30.3741C317.221 30.3741 328.362 30.1709 339.875 29.7645V47.2373C328.362 46.831 317.221 46.6278 306.453 46.6278C300.087 46.6278 295.279 46.6617 292.028 46.7294V57.2943Z" fill="var(--fill-0, #E13333)"/>
<path id="Vector_9" d="M259.953 2.13318C259.479 13.5785 259.242 25.8704 259.242 39.0089C259.242 52.1473 259.479 64.4392 259.953 75.8846H236.08V22.6535H201.744V75.8846H177.872C178.413 62.7461 178.684 50.4542 178.684 39.0089C178.684 27.5635 178.413 15.2716 177.872 2.13318H259.953Z" fill="var(--fill-0, #E13333)"/>
<path id="Vector_10" d="M172.532 2.13318C172.261 2.87814 171.922 3.72469 171.516 4.67282C171.11 5.55324 170.703 6.5691 170.297 7.7204C166.572 16.9309 163.118 25.227 159.935 32.609C156.82 39.9231 153.095 48.2532 148.761 57.5991C144.968 65.726 139.415 72.2275 132.101 77.1036C124.854 82.0475 115.712 84.4178 104.673 84.2146C103.25 78.3226 102.099 73.8867 101.219 70.9069C100.406 67.8593 99.2885 64.744 97.8663 61.561C101.862 62.4414 105.553 62.8816 108.939 62.8816C112.258 62.8816 115.237 62.4414 117.879 61.561C113.003 49.032 104.3 29.2228 91.7712 2.13318H117.066L133.218 40.1263L136.063 33.3201C143.106 16.5922 147.068 6.19661 147.948 2.13318H172.532Z" fill="var(--fill-0, #E13333)"/>
<path id="Vector_11" d="M44.6977 76.9006C29.3921 76.9006 18.1161 73.6498 10.8697 67.1483C3.62322 60.6468 0 51.3686 0 39.3138C0 27.1912 3.62322 17.6082 10.8697 10.5649C18.1161 3.52165 29.3921 0 44.6977 0C66.0985 0 80.422 7.34805 87.6685 22.0442C81.5734 24.1436 74.4285 27.2928 66.2339 31.4916C64.2699 27.6991 61.1546 24.8886 56.888 23.06C52.6891 21.2315 48.3887 20.3172 43.9866 20.3172C37.4851 20.3172 32.6429 22.0441 29.4599 25.4981C26.2768 28.8843 24.6853 33.0832 24.6853 38.0947C24.6853 43.5126 26.3784 47.9486 29.7646 51.4025C33.2185 54.7887 38.4671 56.4818 45.5104 56.4818C51.1315 56.4818 55.6013 55.5675 58.9197 53.739C62.2382 51.8427 64.6763 48.8628 66.2339 44.7994C71.7873 47.7793 78.8983 51.1316 87.5669 54.8564C84.1807 63.051 78.5258 68.7737 70.6021 72.0244C62.6784 75.2752 54.0436 76.9006 44.6977 76.9006Z" fill="var(--fill-0, #E13333)"/>
</g>
</svg>
